Normalized EMG Linear Envelopes
nRows=230
nColumns=4

endheader
time	 med_gas_r	  soleus_r	 tib_ant_r	
6.71976	  0.033192	  0.045543	  0.004292	
6.75302	  0.032562	  0.044118	  0.004340	
6.78629	  0.031881	  0.043116	  0.004390	
6.81956	  0.031151	  0.042615	  0.004444	
6.85282	  0.030516	  0.042531	  0.004504	
6.88609	  0.029933	  0.042825	  0.004562	
6.91935	  0.029214	  0.043472	  0.004604	
6.95262	  0.028441	  0.044361	  0.004618	
6.98589	  0.027785	  0.045302	  0.004600	
7.01915	  0.027310	  0.046176	  0.004564	
7.05242	  0.027090	  0.046748	  0.004544	
7.08569	  0.027182	  0.046928	  0.004570	
7.11895	  0.027423	  0.047119	  0.004656	
7.15222	  0.027673	  0.047861	  0.004791	
7.18548	  0.027907	  0.049398	  0.004939	
7.21875	  0.028166	  0.051756	  0.005072	
7.25202	  0.028626	  0.054816	  0.005176	
7.28528	  0.029296	  0.058442	  0.005234	
7.31855	  0.029944	  0.062424	  0.005214	
7.35181	  0.030453	  0.066187	  0.005097	
7.38508	  0.030675	  0.069082	  0.004897	
7.41835	  0.030643	  0.070529	  0.004670	
7.45161	  0.030623	  0.070330	  0.004458	
7.48488	  0.030640	  0.068582	  0.004301	
7.51815	  0.030526	  0.066156	  0.004213	
7.55141	  0.030346	  0.063726	  0.004185	
7.58468	  0.030192	  0.061352	  0.004196	
7.61794	  0.030138	  0.059436	  0.004243	
7.65121	  0.030416	  0.058314	  0.004321	
7.68448	  0.031125	  0.057824	  0.004419	
7.71774	  0.032165	  0.057624	  0.004529	
7.75101	  0.033365	  0.057147	  0.004646	
7.78427	  0.034379	  0.056038	  0.004741	
7.81754	  0.034949	  0.054299	  0.004800	
7.85081	  0.035109	  0.052144	  0.004843	
7.88407	  0.035025	  0.050269	  0.004889	
7.91734	  0.034773	  0.049145	  0.004926	
7.9506	  0.034365	  0.048781	  0.004937	
7.98387	  0.033883	  0.048979	  0.004918	
8.01714	  0.033212	  0.049542	  0.004867	
8.0504	  0.032498	  0.050293	  0.004797	
8.08367	  0.032097	  0.050872	  0.004746	
8.11694	  0.031993	  0.051067	  0.004740	
8.1502	  0.032074	  0.050899	  0.004786	
8.18347	  0.032329	  0.050327	  0.004858	
8.21673	  0.032626	  0.049371	  0.004918	
8.25	  0.032830	  0.048257	  0.004932	
8.28327	  0.033010	  0.047353	  0.004901	
8.31653	  0.033182	  0.046831	  0.004853	
8.3498	  0.033172	  0.046698	  0.004797	
8.38306	  0.032848	  0.046880	  0.004729	
8.41633	  0.032284	  0.047263	  0.004639	
8.4496	  0.031518	  0.047760	  0.004517	
8.48286	  0.030680	  0.048495	  0.004362	
8.51613	  0.030100	  0.049488	  0.004191	
8.5494	  0.029798	  0.050731	  0.004041	
8.58266	  0.029616	  0.052382	  0.003945	
8.61593	  0.029567	  0.054526	  0.003930	
8.64919	  0.029688	  0.057009	  0.004008	
8.68246	  0.029951	  0.059502	  0.004178	
8.71573	  0.030439	  0.062040	  0.004425	
8.74899	  0.031210	  0.064824	  0.004727	
8.78226	  0.032226	  0.068144	  0.005057	
8.81552	  0.033633	  0.072194	  0.005397	
8.84879	  0.035759	  0.077301	  0.005743	
8.88206	  0.039259	  0.084101	  0.006132	
8.91532	  0.044651	  0.092581	  0.006577	
8.94859	  0.052602	  0.102473	  0.007068	
8.98185	  0.063634	  0.113553	  0.007617	
9.01512	  0.077679	  0.125231	  0.008235	
9.04839	  0.094103	  0.137292	  0.008909	
9.08165	  0.112440	  0.149078	  0.009605	
9.11492	  0.132425	  0.159458	  0.010287	
9.14819	  0.153187	  0.168556	  0.010896	
9.18145	  0.174008	  0.177305	  0.011376	
9.21472	  0.197064	  0.187524	  0.011797	
9.24798	  0.225524	  0.200826	  0.012157	
9.28125	  0.260537	  0.217702	  0.012447	
9.31452	  0.299746	  0.237195	  0.012705	
9.34778	  0.338753	  0.257369	  0.012957	
9.38105	  0.374209	  0.277809	  0.013220	
9.41431	  0.402875	  0.297352	  0.013505	
9.44758	  0.429244	  0.314833	  0.013857	
9.48085	  0.460648	  0.332314	  0.014309	
9.51411	  0.500170	  0.352581	  0.014875	
9.54738	  0.547746	  0.376062	  0.015567	
9.58065	  0.600324	  0.401909	  0.016354	
9.61391	  0.655760	  0.428780	  0.017174	
9.64718	  0.712892	  0.455644	  0.018057	
9.68044	  0.772221	  0.482710	  0.019077	
9.71371	  0.834077	  0.509391	  0.020241	
9.74698	  0.893673	  0.535660	  0.021547	
9.78024	  0.945264	  0.560013	  0.023020	
9.81351	  0.980436	  0.580552	  0.024583	
9.84677	  0.997497	  0.600270	  0.026099	
9.88004	  0.998661	  0.623103	  0.027306	
9.91331	  0.985022	  0.648239	  0.028021	
9.94657	  0.960023	  0.673030	  0.028188	
9.97984	  0.932705	  0.699013	  0.027969	
10.0131	  0.906938	  0.726553	  0.027623	
10.0464	  0.884946	  0.751281	  0.027390	
10.0796	  0.873968	  0.765570	  0.027458	
10.1129	  0.878748	  0.766709	  0.027938	
10.1462	  0.897165	  0.762174	  0.028778	
10.1794	  0.917640	  0.757459	  0.029822	
10.2127	  0.929019	  0.757459	  0.030792	
10.246	  0.928619	  0.760337	  0.031308	
10.2792	  0.916713	  0.764928	  0.031170	
10.3125	  0.895599	  0.775075	  0.030657	
10.3458	  0.868862	  0.794881	  0.030062	
10.379	  0.844076	  0.819937	  0.029608	
10.4123	  0.825419	  0.838765	  0.029541	
10.4456	  0.808833	  0.847093	  0.029959	
10.4788	  0.789345	  0.847953	  0.030807	
10.5121	  0.764957	  0.844298	  0.032018	
10.5454	  0.729207	  0.841961	  0.033339	
10.5786	  0.680645	  0.848242	  0.034386	
10.6119	  0.627425	  0.864419	  0.035049	
10.6452	  0.574849	  0.888691	  0.035530	
10.6784	  0.523859	  0.917220	  0.035952	
10.7117	  0.476342	  0.945134	  0.036389	
10.745	  0.435520	  0.966754	  0.036933	
10.7782	  0.402867	  0.980489	  0.037662	
10.8115	  0.376742	  0.990963	  0.038585	
10.8448	  0.355575	  0.998447	  0.039449	
10.878	  0.339672	  0.999622	  0.039972	
10.9113	  0.328881	  0.997829	  0.040218	
10.9446	  0.322137	  0.998570	  0.040304	
10.9778	  0.318815	  0.999575	  0.040141	
11.0111	  0.318443	  0.994506	  0.039633	
11.0444	  0.319541	  0.982328	  0.038668	
11.0776	  0.321264	  0.970345	  0.037340	
11.1109	  0.322492	  0.959703	  0.035886	
11.1442	  0.322454	  0.946642	  0.034590	
11.1774	  0.319771	  0.931637	  0.033665	
11.2107	  0.314251	  0.916982	  0.033092	
11.244	  0.306740	  0.903977	  0.032756	
11.2772	  0.299047	  0.895924	  0.032617	
11.3105	  0.291760	  0.894857	  0.032912	
11.3437	  0.283681	  0.897262	  0.033887	
11.377	  0.274481	  0.894198	  0.035608	
11.4103	  0.265670	  0.885661	  0.038037	
11.4435	  0.259479	  0.873652	  0.040876	
11.4768	  0.256748	  0.857874	  0.043542	
11.5101	  0.257565	  0.837430	  0.045595	
11.5433	  0.260170	  0.810411	  0.046798	
11.5766	  0.262311	  0.780178	  0.047439	
11.6099	  0.263819	  0.753089	  0.047675	
11.6431	  0.265143	  0.736060	  0.047447	
11.6764	  0.266048	  0.733238	  0.047015	
11.7097	  0.265610	  0.744608	  0.046635	
11.7429	  0.262492	  0.764703	  0.046249	
11.7762	  0.255552	  0.784003	  0.045732	
11.8095	  0.244972	  0.789500	  0.044454	
11.8427	  0.232923	  0.775551	  0.042219	
11.876	  0.221907	  0.748357	  0.039512	
11.9093	  0.214205	  0.712988	  0.036859	
11.9425	  0.210402	  0.670776	  0.034622	
11.9758	  0.209650	  0.626114	  0.032852	
12.0091	  0.211172	  0.584324	  0.031406	
12.0423	  0.213346	  0.548278	  0.030149	
12.0756	  0.214364	  0.519353	  0.029182	
12.1089	  0.213685	  0.497721	  0.028604	
12.1421	  0.211858	  0.484169	  0.028443	
12.1754	  0.209736	  0.479812	  0.028686	
12.2087	  0.207795	  0.483293	  0.029130	
12.2419	  0.206079	  0.493865	  0.029551	
12.2752	  0.204745	  0.508586	  0.030017	
12.3085	  0.204148	  0.523307	  0.030674	
12.3417	  0.204461	  0.533316	  0.031669	
12.375	  0.205026	  0.538806	  0.033088	
12.4083	  0.204045	  0.541711	  0.034853	
12.4415	  0.200348	  0.543651	  0.036642	
12.4748	  0.194983	  0.544945	  0.038133	
12.5081	  0.188656	  0.543447	  0.039391	
12.5413	  0.181779	  0.537582	  0.040650	
12.5746	  0.173992	  0.520984	  0.041984	
12.6079	  0.165225	  0.486602	  0.043000	
12.6411	  0.156327	  0.436392	  0.043214	
12.6744	  0.148147	  0.380115	  0.042615	
12.7077	  0.141220	  0.326126	  0.041591	
12.7409	  0.135996	  0.278979	  0.040234	
12.7742	  0.132401	  0.241921	  0.038396	
12.8075	  0.129922	  0.216011	  0.036287	
12.8407	  0.127968	  0.198969	  0.034571	
12.874	  0.124846	  0.186958	  0.033580	
12.9073	  0.120365	  0.179048	  0.033077	
12.9405	  0.115812	  0.174724	  0.032516	
12.9738	  0.111926	  0.172687	  0.031330	
13.0071	  0.108871	  0.170994	  0.029603	
13.0403	  0.105763	  0.167263	  0.027571	
13.0736	  0.101376	  0.161130	  0.025169	
13.1069	  0.096720	  0.155477	  0.022259	
13.1401	  0.093415	  0.152778	  0.019164	
13.1734	  0.092046	  0.153204	  0.016307	
13.2067	  0.092544	  0.155576	  0.013883	
13.2399	  0.094033	  0.158427	  0.011936	
13.2732	  0.094291	  0.161575	  0.010478	
13.3065	  0.092554	  0.165363	  0.009472	
13.3397	  0.090392	  0.168952	  0.008849	
13.373	  0.088635	  0.169887	  0.008483	
13.4062	  0.087430	  0.166122	  0.008219	
13.4395	  0.086700	  0.157880	  0.007976	
13.4728	  0.085716	  0.147371	  0.007735	
13.506	  0.082967	  0.137147	  0.007513	
13.5393	  0.079359	  0.129092	  0.007304	
13.5726	  0.076634	  0.124007	  0.007095	
13.6058	  0.075978	  0.121906	  0.006866	
13.6391	  0.077622	  0.122335	  0.006628	
13.6724	  0.080565	  0.124331	  0.006397	
13.7056	  0.082483	  0.126251	  0.006193	
13.7389	  0.081544	  0.126849	  0.006007	
13.7722	  0.079057	  0.124961	  0.005841	
13.8054	  0.076741	  0.120234	  0.005716	
13.8387	  0.075688	  0.113834	  0.005637	
13.872	  0.076103	  0.107527	  0.005600	
13.9052	  0.076988	  0.101924	  0.005617	
13.9385	  0.076510	  0.096532	  0.005705	
13.9718	  0.075000	  0.090540	  0.005869	
14.005	  0.073975	  0.084508	  0.006085	
14.0383	  0.074100	  0.079486	  0.006330	
14.0716	  0.075495	  0.075781	  0.006584	
14.1048	  0.077523	  0.073702	  0.006841	
14.1381	  0.078522	  0.073788	  0.007062	
14.1714	  0.077302	  0.076186	  0.007134	
14.2046	  0.075124	  0.080433	  0.006980	
14.2379	  0.073367	  0.085820	  0.006679	
14.2712	  0.072741	  0.091800	  0.006326	
14.3044	  0.073085	  0.097371	  0.005977	
14.3377	  0.073345	  0.101116	  0.005677	
